<?xml version="1.0" encoding="utf-8" ?>
<svg xmlns="http://www.w3.org/2000/svg" xmlns:xlink="http://www.w3.org/1999/xlink" width="512" height="512">
	<path fill="white" d="M258.59 82.3639L256.834 81.5442C249.492 84.2544 226.128 97.2045 220.58 102.96C217.727 105.919 217.981 108.683 217.957 112.512L218.063 156.905C212.657 155.85 207.594 152.12 202.847 149.436L186.604 140.625C183.131 138.811 179.634 136.84 175.937 135.526C175.398 130.06 175.809 124.153 175.807 118.639L175.81 103.025C175.834 74.5554 185.214 72.2207 208.555 58.157C222.395 49.8185 236.133 39.1648 252.732 37.602L258.125 37.4855C269.06 37.7592 277.745 42.447 286.989 47.7168L308.938 60.8507C325.596 71.0496 336.371 76.2961 336.44 97.8236L336.372 134.143L307.538 150.488C304.079 152.499 300.019 155.321 296.176 156.376C295.549 156.549 295.039 156.746 294.463 157.05L294.181 123.73C294.183 120.215 295.156 107.873 293.117 105.143C288.042 98.3497 279.986 94.5855 272.763 90.4691L258.59 82.3639Z"/>
	<path fill="white" d="M391.812 177.628C382.453 176.888 375.403 183.007 367.568 187.085L292.282 228.846C254.385 250.634 238.715 239.159 203.098 219.242L137.541 183.152C134.455 181.522 131.234 179.683 127.924 178.553C115.02 174.15 100.703 183.765 97.6535 196.57C96.0725 203.209 96.2921 223.73 97.0645 231.195C95.1511 232.597 92.5869 233.468 90.4592 234.594L60.1066 250.777C53.1177 255.049 52.9394 257.796 52.9574 250.749L52.9851 210.678C52.9916 203.639 52.6328 196.499 53.7266 189.536C58.6653 158.094 86.955 134.65 118.232 133.11C134.994 132.928 145.224 137.045 159.371 144.854L237.571 187.581C251.469 195.135 253.801 198.601 268.396 191.207L337.56 153.061C354.22 143.791 362.72 137.767 381.494 133.703L382.058 133.583C384.827 133.073 387.824 133.179 390.632 133.18C420.61 133.187 447.664 152.335 456.393 181.44C458.563 188.675 458.944 195.762 458.952 203.264L459.503 253.808C454.092 252.057 449.162 249.159 444.135 246.542L424.653 236.711C415.453 231.994 415.052 233.385 415.041 223.697L415.049 207.675C415.05 204.282 415.34 200.559 414.61 197.239C412.253 186.516 402.723 178.46 391.812 177.628Z"/>
	<path fill="white" d="M386.623 269.959L396.925 264.199C419.935 252.46 444.002 260.759 463.268 275.52C492.459 297.886 498.63 340.207 475.625 369.382C458.304 391.348 429.294 402.596 402.273 393.166C394.745 390.539 387.772 386.307 380.804 382.482L269.005 321.699C265.521 319.911 260.862 317.09 256.961 316.617C251.918 316.005 237.735 325.174 233.282 327.625L140.746 377.139C131.516 382.111 122.437 387.998 112.699 391.913C50.2463 417.025 -6.02992 336.842 37.3894 286.115C49.7596 271.662 69.1813 260.364 88.3196 258.853C106.682 256.866 116.018 264.66 130.678 272.802L152.683 285.013C157.439 287.661 162.288 290.132 166.759 293.25L165.446 294.18C161.341 296.937 126.026 316.781 123.313 316.706C119.989 316.614 103.986 305.142 95.5918 303.589C75.4384 299.86 58.6042 324.583 71.0744 341.739C81.2271 355.706 94.9779 352.727 107.537 345.432L122.739 336.456L197.106 297.165L216.894 285.974C252.263 265.526 267.269 270.906 299.644 288.385L404.009 344.905C408.497 347.487 413.601 350.841 418.803 351.625C437.886 354.5 453.143 331.086 440.433 314.625C436.352 309.341 429.081 304.57 422.363 303.766C411.728 302.494 401.736 310.099 393.016 315.253C389.257 317.475 388.577 316.755 384.914 314.966L357.471 300.968C354.862 299.585 347.2 296.502 345.82 293.848C349.796 290.266 355.096 288.146 359.733 285.477L386.623 269.959Z"/>
	<path fill="white" d="M184.396 433.496C177.883 426.24 175.878 418.66 175.848 409.005L175.994 376.939C177.025 375.962 178.316 375.491 179.538 374.778L206.38 360.203C209.093 358.808 212.369 356.799 215.345 356.188L217.814 355.525L217.991 391.591C218.106 408.18 225.3 409.173 238.424 416.731C243.597 419.71 249.292 423.432 254.94 425.432C259.561 427.068 292.104 406.691 293.572 402.879C293.884 402.068 293.835 400.772 293.896 399.903L294.197 360.502C294.204 358.562 294.091 356.605 294.766 354.752L294.86 354.509C297.5 355.477 300.05 357.101 302.492 358.485L331.66 374.057C333.276 374.958 335.386 375.529 336.532 377.046L336.472 400.622C336.467 427.424 334.795 430.95 310.087 446.342L289.558 458.691C284.075 461.842 278.684 465.43 272.75 467.68C250.112 476.265 232.705 464.805 214.055 453.719C203.825 447.639 192.858 442.021 184.396 433.496Z"/>
</svg>
